<svg width="25" height="24" viewBox="0 0 25 24" fill="none" xmlns="http://www.w3.org/2000/svg">
<path d="M18.83 20.8299C17.27 20.8299 16 19.5599 16 17.9999C16 16.4399 17.27 15.1699 18.83 15.1699C20.39 15.1699 21.66 16.4399 21.66 17.9999C21.66 19.5599 20.39 20.8299 18.83 20.8299ZM18.83 16.1599C17.82 16.1599 17 16.9799 17 17.9899C17 18.9999 17.82 19.8199 18.83 19.8199C19.84 19.8199 20.66 18.9999 20.66 17.9899C20.66 16.9799 19.84 16.1599 18.83 16.1599Z" fill="#146E37"/>
<path d="M7.16992 20.8301C4.68992 20.8301 2.66992 18.8101 2.66992 16.3301C2.66992 13.8501 4.68992 11.8301 7.16992 11.8301C9.64992 11.8301 11.6699 13.8501 11.6699 16.3301C11.6699 18.8101 9.64992 20.8301 7.16992 20.8301ZM7.16992 12.8301C5.23992 12.8301 3.66992 14.4001 3.66992 16.3301C3.66992 18.2601 5.23992 19.8301 7.16992 19.8301C9.09992 19.8301 10.6699 18.2601 10.6699 16.3301C10.6699 14.4001 9.09992 12.8301 7.16992 12.8301Z" fill="#146E37"/>
<path d="M13.8296 16.8299C13.5496 16.8299 13.3296 16.6099 13.3296 16.3299C13.3296 14.6999 12.7096 13.1699 11.5696 12.0099C10.4196 10.8299 8.86957 10.1799 7.22957 10.1599C6.41957 10.1699 5.56957 10.3099 4.80957 10.6199C4.73957 10.6699 4.65957 10.7099 4.57957 10.7199C3.94957 11.0099 3.35957 11.4099 2.84957 11.9199C2.64957 12.1099 2.33957 12.1099 2.13957 11.9199C1.94957 11.7199 1.94957 11.4099 2.13957 11.2099C2.69957 10.6599 3.31957 10.2299 3.98957 9.89991V4.84991C3.98957 3.91991 4.74957 3.15991 5.67957 3.15991H11.8296C12.0696 3.15991 12.2796 3.32991 12.3196 3.56991L13.6496 10.8999C13.6996 11.1699 13.5196 11.4299 13.2496 11.4799C12.9796 11.5299 12.7196 11.3499 12.6696 11.0799L11.4096 4.15991H5.68957C5.30957 4.15991 4.99957 4.46991 4.99957 4.84991V9.49991C7.48957 8.70991 10.3296 9.31991 12.2796 11.3099C13.5996 12.6599 14.3296 14.4399 14.3296 16.3299C14.3296 16.6099 14.1096 16.8299 13.8296 16.8299Z" fill="#146E37"/>
<path d="M21.6699 16.17H13.7999C13.5199 16.17 13.2999 15.95 13.2999 15.67C13.2999 15.39 13.5199 15.17 13.7999 15.17H21.2499L21.8999 11.5H11.1299C10.8499 11.5 10.6299 11.28 10.6299 11C10.6299 10.72 10.8499 10.5 11.1299 10.5H16.6599V6.23C16.6599 5.27 17.4399 4.5 18.3899 4.5H18.4899C18.7699 4.5 18.9899 4.72 18.9899 5C18.9899 5.28 18.7699 5.5 18.4899 5.5H18.3899C17.9899 5.5 17.6599 5.83 17.6599 6.23V10.5H22.4899C22.6399 10.5 22.7799 10.57 22.8699 10.68C22.9699 10.79 22.9999 10.94 22.9799 11.09L22.1499 15.76C22.1099 16 21.8999 16.17 21.6599 16.17H21.6699Z" fill="#146E37"/>
</svg>
